# xmcd
#
# Track frame offsets: 
#        150
#        28261
#        46738
#        71166
#        89509
#        103961
#        132481
#        150451
#        176625
#
# Disc length: 2656 seconds
#
# Revision: 0
# Processed by: cddbd v1.5.2PL0 Copyright (c) Steve Scherf et al.
# Submitted via: ExactAudioCopy v1.0b1
#
DISCID=7d0a5e09
DTITLE=Lampela and Lampi - Bensaahan ne pojat tuli hakemaan
DYEAR=2011
DGENRE=Hip-Hop
TTITLE0=Kun mikään ei riitä
TTITLE1=Bensaahan ne pojat tuli hakemaan
TTITLE2=Sammuu
TTITLE3=Tennispallobiisi
TTITLE4=Pieni välisoitto
TTITLE5=Bussi 615
TTITLE6=Sirkuskarhu
TTITLE7=Merkit sinusta
TTITLE8=Kuukauden työntekijä
EXTD=
EXTT0=
EXTT1=
EXTT2=
EXTT3=
EXTT4=
EXTT5=
EXTT6=
EXTT7=
EXTT8=
PLAYORDER=
